<!-- <svg xmlns="http://www.w3.org/2000/svg" fill="currentColor" viewBox="0 0 512 512">
  <path d="M480 256c0 123.4-100.5 223.9-223.9 223.9c-48.86 0-95.19-15.58-134.2-44.86c-14.14-10.59-17-30.66-6.391-44.81c10.61-14.09 30.69-16.97 44.8-6.375c27.84 20.91 61 31.94 95.89 31.94C344.3 415.8 416 344.1 416 256s-71.67-159.8-159.8-159.8C205.9 96.22 158.6 120.3 128.6 160H192c17.67 0 32 14.31 32 32S209.7 224 192 224H48c-17.67 0-32-14.31-32-32V48c0-17.69 14.33-32 32-32s32 14.31 32 32v70.23C122.1 64.58 186.1 32.11 256.1 32.11C379.5 32.11 480 132.6 480 256z"/>
</svg> -->
<svg xmlns="http://www.w3.org/2000/svg" fill="currentColor" viewBox="0 0 329.937 329.937">
  <path d="M317.86,60.862l-86.666-17.238c-8.124-1.612-16.021,3.661-17.638,11.785l-17.24,86.668
    c-1.616,8.125,3.66,16.023,11.785,17.639c0.988,0.196,1.973,0.291,2.943,0.291c7.01,0,13.276-4.939,14.696-12.076l10.711-53.851
    c22.66,41.719,16.365,95.225-18.79,130.38c-21.441,21.44-49.596,32.159-77.76,32.157c-28.157-0.003-56.323-10.722-77.759-32.157
    c-42.876-42.876-42.876-112.642,0-155.518c5.858-5.857,5.858-15.355,0-21.213c-5.857-5.857-15.355-5.857-21.213,0
    c-54.573,54.573-54.573,143.37,0,197.943c27.29,27.29,63.125,40.934,98.972,40.93c35.838-0.003,71.689-13.647,98.973-40.93
    c26.317-26.317,40.876-61.307,40.995-98.523c0.076-23.59-5.662-46.318-16.525-66.544l48.664,9.68
    c8.127,1.613,16.022-3.66,17.638-11.786C331.262,70.375,325.985,62.479,317.86,60.862z"
  />
</svg>